<?xml version="1.0" encoding="UTF-8" standalone="no"?>
<svg
   xmlns:osb="http://www.openswatchbook.org/uri/2009/osb"
   xmlns:dc="http://purl.org/dc/elements/1.1/"
   xmlns:cc="http://creativecommons.org/ns#"
   xmlns:rdf="http://www.w3.org/1999/02/22-rdf-syntax-ns#"
   xmlns:svg="http://www.w3.org/2000/svg"
   xmlns="http://www.w3.org/2000/svg"
   xmlns:xlink="http://www.w3.org/1999/xlink"
   id="svg8"
   version="1.1"
   viewBox="0 0 210 297"
   height="297mm"
   width="210mm">
  <defs
     id="defs2">
    <linearGradient
       osb:paint="solid"
       id="linearGradient3368">
      <stop
         id="stop3366"
         offset="0"
         style="stop-color:#360f00;stop-opacity:1;" />
    </linearGradient>
    <linearGradient
       osb:paint="solid"
       id="linearGradient1281">
      <stop
         id="stop1279"
         offset="0"
         style="stop-color:#7f0000;stop-opacity:1;" />
    </linearGradient>
    <linearGradient
       gradientUnits="userSpaceOnUse"
       y2="59.063634"
       x2="98.131892"
       y1="59.063634"
       x1="15.637835"
       id="linearGradient1283"
       xlink:href="#linearGradient1281" />
    <filter
       height="1.0099697"
       y="-0.0049848303"
       width="1.0092512"
       x="-0.0046256067"
       id="filter3242"
       style="color-interpolation-filters:sRGB">
      <feGaussianBlur
         id="feGaussianBlur3244"
         stdDeviation="0.11990042" />
    </filter>
    <radialGradient
       r="31.39298"
       fy="49.963211"
       fx="75.349515"
       cy="49.963211"
       cx="75.349515"
       gradientTransform="matrix(1,0,0,0.92859723,0,3.5675117)"
       gradientUnits="userSpaceOnUse"
       id="radialGradient3388"
       xlink:href="#linearGradient3368" />
  </defs>
  <metadata
     id="metadata5">
    <rdf:RDF>
      <cc:Work
         rdf:about="">
        <dc:format>image/svg+xml</dc:format>
        <dc:type
           rdf:resource="http://purl.org/dc/dcmitype/StillImage" />
        <dc:title></dc:title>
      </cc:Work>
    </rdf:RDF>
  </metadata>
  <g
     id="layer1">
    <flowRoot
       transform="scale(0.26458333)"
       style="font-style:normal;font-variant:normal;font-weight:normal;font-stretch:normal;font-size:40px;line-height:1.25;font-family:Mistral;-inkscape-font-specification:Mistral;letter-spacing:0px;word-spacing:0px;fill:#000000;fill-opacity:1;stroke:none;"
       id="flowRoot1303"
       xml:space="preserve"><flowRegion
         style="-inkscape-font-specification:Mistral;font-family:Mistral;font-weight:normal;font-style:normal;font-stretch:normal;font-variant:normal;"
         id="flowRegion1305"><rect
           style="-inkscape-font-specification:Mistral;font-family:Mistral;font-weight:normal;font-style:normal;font-stretch:normal;font-variant:normal;"
           y="100.37682"
           x="57.857143"
           height="114.28571"
           width="205.71428"
           id="rect1307" /></flowRegion><flowPara
         id="flowPara1309" /></flowRoot>    <flowRoot
       transform="scale(0.26458333)"
       style="font-style:normal;font-variant:normal;font-weight:normal;font-stretch:normal;font-size:40px;line-height:1.25;font-family:'Vladimir Script';-inkscape-font-specification:'Vladimir Script';letter-spacing:0px;word-spacing:0px;fill:#000000;fill-opacity:1;stroke:none;"
       id="flowRoot1311"
       xml:space="preserve"><flowRegion
         style="-inkscape-font-specification:'Vladimir Script';font-family:'Vladimir Script';font-weight:normal;font-style:normal;font-stretch:normal;font-variant:normal;"
         id="flowRegion1313"><rect
           style="-inkscape-font-specification:'Vladimir Script';font-family:'Vladimir Script';font-weight:normal;font-style:normal;font-stretch:normal;font-variant:normal;"
           y="100.37682"
           x="55"
           height="111.42857"
           width="212.14285"
           id="rect1315" /></flowRegion><flowPara
         id="flowPara1317" /></flowRoot>    <g
       id="g2819">
      <flowRoot
         xml:space="preserve"
         id="flowRoot2807"
         style="fill:black;fill-opacity:1;stroke:none;font-family:'Viner Hand ITC';font-style:normal;font-weight:normal;font-size:40px;line-height:1.25;letter-spacing:0px;word-spacing:0px;-inkscape-font-specification:'Viner Hand ITC';font-stretch:normal;font-variant:normal"><flowRegion
           id="flowRegion2809"><rect
             id="rect2811"
             width="275.77164"
             height="214.65741"
             x="71.720833"
             y="55.798595" /></flowRegion><flowPara
           id="flowPara2813"></flowPara></flowRoot>    </g>
    <g
       id="g3414">
      <g
         id="g2826"
         transform="matrix(1.1023262,0,0,1.2140312,-10.552815,-12.370405)"
         style="opacity:1;stroke:url(#radialGradient3388);stroke-width:1.00014592;stroke-miterlimit:4;stroke-dasharray:2.00029184,4.00058368;stroke-dashoffset:2.90042326;stroke-opacity:1;filter:url(#filter3242);fill-opacity:1;fill:none">
        <g
           id="g2822"
           style="fill:none;fill-opacity:1;stroke:url(#radialGradient3388);stroke-width:1.10967025;stroke-miterlimit:4;stroke-dasharray:2.21934049,4.43868099;stroke-dashoffset:3.21804382;stroke-opacity:1"
           transform="matrix(0.89769442,0,0,0.90492029,5.2792645,2.3091962)">
          <path
             style="fill:none;fill-opacity:1;fill-rule:evenodd;stroke:url(#radialGradient3388);stroke-width:0.90495338;stroke-miterlimit:4;stroke-dasharray:1.80990675,3.6198135;stroke-dashoffset:2.62436488;stroke-opacity:1"
             id="path1285"
             d="m 39.158995,42.347976 c -1.155264,-0.775688 -0.638992,-2.474749 0.261492,-3.208496 1.66888,-1.359866 4.108138,-0.506897 5.191689,1.16256 1.613643,2.486187 0.381881,5.771035 -2.06363,7.174881 -3.285945,1.886299 -7.444557,0.260441 -9.158074,-2.964698 -2.167388,-4.079407 -0.140973,-9.123162 3.865768,-11.141266 4.86997,-2.452893 10.804617,-0.02266 13.124459,4.766837 2.74098,5.658973 -0.09492,12.487836 -5.667907,15.10765 -6.447046,3.030704 -14.172227,-0.212023 -17.090843,-6.568975 -3.321526,-7.234522 0.328791,-15.857436 7.470045,-19.074035 8.02159,-3.613125 17.543237,0.445318 21.057228,8.371113 3.905289,8.808369 -0.561666,19.229484 -9.272183,23.04042 C 37.282103,63.211846 25.960968,58.33609 21.853426,48.840716 17.36263,38.459374 22.647409,26.23779 32.927747,21.833911 44.095369,17.049938 57.217743,22.743914 61.917744,33.809301 66.9951,45.763105 60.891789,59.78654 49.041286,64.78249 36.301378,70.153397 21.37666,63.640639 16.084904,51.004962 10.420307,37.479017 17.342605,21.65283 30.763501,16.065388 c 14.31193,-5.958402 31.039738,1.373513 36.922766,15.579666 4.020409,9.708358 2.405397,21.078728 -3.997109,29.382295"
             transform="matrix(1.2419794,0,0,1.2106569,25.89726,3.8359876)" />
        </g>
      </g>
      <text
         xml:space="preserve"
         style="font-style:normal;font-variant:normal;font-weight:normal;font-stretch:normal;font-size:31.46012878px;line-height:1.25;font-family:Pristina;-inkscape-font-specification:Pristina;letter-spacing:0px;word-spacing:0px;fill:#9c0002;fill-opacity:1;stroke:#060000;stroke-width:0.39288998;stroke-miterlimit:4;stroke-dasharray:9.42935975, 0.39289000000000002;stroke-dashoffset:0;stroke-opacity:1;"
         x="35.964748"
         y="51.064838"
         id="text1321"
         transform="scale(0.90893957,1.1001831)"><tspan
           id="tspan1319"
           x="35.964748"
           y="51.064838"
           style="font-style:normal;font-variant:normal;font-weight:normal;font-stretch:normal;font-family:Pristina;-inkscape-font-specification:Pristina;fill:#9c0002;fill-opacity:1;stroke:#060000;stroke-width:0.39288998;stroke-miterlimit:4;stroke-dasharray:9.42935975, 0.39289000000000002;stroke-dashoffset:0;stroke-opacity:1;">Slipksar</tspan></text>
      <path
         style="fill:none;stroke:#001c00;stroke-width:0.87109566;stroke-linecap:butt;stroke-linejoin:miter;stroke-miterlimit:4;stroke-dasharray:none;stroke-opacity:1"
         d="M 40.905488,50.654635 36.557907,37.009457 48.151456,28.0618 l 4.968665,2.236914 4.554607,-4.473829 6.346791,5.534405 -4.690568,3.189563 2.484332,1.342146 -0.414055,3.579063 1.449194,-2.684297 5.17569,-2.013223 2.69136,2.236915 v 4.921213 l 2.69136,-5.592288 6.624884,-12.52672 6.624886,4.921212 -6.003801,6.26336 -2.484333,4.69752 4.968665,1.118458 4.554608,-2.684297 5.17569,-0.894765 -1.229469,4.633644 5.350504,-2.252177 4.574124,1.644978 -0.62108,2.236915 3.13649,-6.760402 2.86731,3.405029 1.86325,-1.118458 3.10542,0.671075 -0.62109,6.263361 -0.41405,4.69752 h -4.14055 l -1.65623,5.52604 -3.10541,5.434839 -3.436661,-3.400109 -2.774171,2.952728 -2.070275,-0.223694 0.414056,-4.137428 -3.726498,3.913739 -3.312444,-2.661067 -1.656221,2.661067 -4.140554,3.35537 -1.65622,-2.460606 -3.535633,-3.822556 -4.637419,1.879007 -1.226003,-5.370298 -3.022604,5.637024 -4.057743,-2.505345 -0.496867,4.853243 -1.449194,12.75041 L 53.327147,73.24747 56.57983,58.607335 53.101765,57.981 47.751262,59.60684 v -3.758016 l -7.089538,6.636525 -7.97194,-6.304674 -3.791901,-10.447253 6.417858,-1.56584 z"
         id="path3317" />
    </g>
  </g>
</svg>
